<svg id="_002-instagram" data-name="002-instagram" xmlns="http://www.w3.org/2000/svg" xmlns:xlink="http://www.w3.org/1999/xlink" width="26.781" height="26.781" viewBox="0 0 26.781 26.781">
  <defs>
    <linearGradient id="linear-gradient" x1="0.084" y1="0.916" x2="0.916" y2="0.084" gradientUnits="objectBoundingBox">
      <stop offset="0" stop-color="#ffd600"/>
      <stop offset="0.5" stop-color="#ff0100"/>
      <stop offset="1" stop-color="#d800b9"/>
    </linearGradient>
    <linearGradient id="linear-gradient-2" x1="0.146" y1="0.854" x2="0.854" y2="0.146" gradientUnits="objectBoundingBox">
      <stop offset="0" stop-color="#ff6400"/>
      <stop offset="0.5" stop-color="#ff0100"/>
      <stop offset="1" stop-color="#fd0056"/>
    </linearGradient>
    <linearGradient id="linear-gradient-3" x1="0.146" y1="0.854" x2="0.854" y2="0.146" gradientUnits="objectBoundingBox">
      <stop offset="0" stop-color="#f30072"/>
      <stop offset="1" stop-color="#e50097"/>
    </linearGradient>
  </defs>
  <path id="Path_66" data-name="Path 66" d="M26.7,7.87a9.831,9.831,0,0,0-.623-3.25,6.563,6.563,0,0,0-1.545-2.372A6.565,6.565,0,0,0,22.162.7a9.829,9.829,0,0,0-3.25-.622C17.483.015,17.027,0,13.391,0S9.3.015,7.87.08A9.832,9.832,0,0,0,4.619.7,6.563,6.563,0,0,0,2.247,2.247,6.564,6.564,0,0,0,.7,4.619a9.83,9.83,0,0,0-.622,3.25C.015,9.3,0,9.754,0,13.39s.016,4.093.081,5.521A9.828,9.828,0,0,0,.7,22.162a6.562,6.562,0,0,0,1.544,2.372,6.561,6.561,0,0,0,2.372,1.545,9.826,9.826,0,0,0,3.25.623c1.428.065,1.884.081,5.521.081s4.093-.015,5.521-.081a9.827,9.827,0,0,0,3.25-.623,6.846,6.846,0,0,0,3.916-3.916,9.828,9.828,0,0,0,.623-3.25c.065-1.428.081-1.884.081-5.521S26.766,9.3,26.7,7.87ZM24.29,18.8a7.409,7.409,0,0,1-.461,2.486,4.434,4.434,0,0,1-2.541,2.541,7.409,7.409,0,0,1-2.486.461c-1.412.065-1.835.078-5.411.078s-4-.013-5.411-.078a7.411,7.411,0,0,1-2.486-.461,4.15,4.15,0,0,1-1.54-1,4.148,4.148,0,0,1-1-1.54A7.409,7.409,0,0,1,2.491,18.8c-.064-1.412-.078-1.835-.078-5.411s.014-4,.078-5.411a7.414,7.414,0,0,1,.461-2.486,4.152,4.152,0,0,1,1-1.54,4.146,4.146,0,0,1,1.54-1A7.407,7.407,0,0,1,7.98,2.491c1.412-.064,1.835-.078,5.411-.078h0c3.576,0,4,.014,5.411.078a7.41,7.41,0,0,1,2.486.461,4.152,4.152,0,0,1,1.54,1,4.146,4.146,0,0,1,1,1.54A7.4,7.4,0,0,1,24.29,7.98c.064,1.412.078,1.835.078,5.411s-.013,4-.078,5.411Zm0,0" transform="translate(0 0)" fill="url(#linear-gradient)"/>
  <path id="Path_67" data-name="Path 67" d="M131.415,124.539a6.876,6.876,0,1,0,6.876,6.876A6.876,6.876,0,0,0,131.415,124.539Zm0,11.34a4.464,4.464,0,1,1,4.464-4.464A4.464,4.464,0,0,1,131.415,135.879Zm0,0" transform="translate(-118.025 -118.025)" fill="url(#linear-gradient-2)"/>
  <path id="Path_68" data-name="Path 68" d="M365.143,90.232a1.607,1.607,0,1,1-1.607-1.607,1.607,1.607,0,0,1,1.607,1.607Zm0,0" transform="translate(-342.998 -83.99)" fill="url(#linear-gradient-3)"/>
</svg>
