<svg id="_003-youtube" data-name="003-youtube" xmlns="http://www.w3.org/2000/svg" width="26.883" height="18.823" viewBox="0 0 26.883 18.823">
  <path id="Path_69" data-name="Path 69" d="M26.329,2.945A3.368,3.368,0,0,0,23.96.576C21.856,0,13.441,0,13.441,0S5.027,0,2.923.554A3.437,3.437,0,0,0,.554,2.945,35.491,35.491,0,0,0,0,9.411a35.36,35.36,0,0,0,.554,6.466,3.369,3.369,0,0,0,2.37,2.37c2.126.576,10.518.576,10.518.576s8.415,0,10.518-.554A3.368,3.368,0,0,0,26.33,15.9a35.492,35.492,0,0,0,.554-6.466,33.687,33.687,0,0,0-.554-6.488Zm0,0" transform="translate(0 0)" fill="red"/>
  <path id="Path_70" data-name="Path 70" d="M204.969,110.545l7-4.03-7-4.03Zm0,0" transform="translate(-194.207 -97.103)" fill="#fff"/>
</svg>
