<svg id="_004-facebook" data-name="004-facebook" xmlns="http://www.w3.org/2000/svg" width="26.883" height="26.883" viewBox="0 0 26.883 26.883">
  <path id="Path_71" data-name="Path 71" d="M25.4,0H1.482A1.484,1.484,0,0,0,0,1.484V25.4a1.484,1.484,0,0,0,1.484,1.483H25.4A1.484,1.484,0,0,0,26.883,25.4h0V1.483A1.484,1.484,0,0,0,25.4,0Zm0,0" transform="translate(0 0)" fill="#4267b2"/>
  <path id="Path_72" data-name="Path 72" d="M214.692,100.147v-10.4h3.5l.525-4.069h-4.03V83.09c0-1.175.326-1.976,2.012-1.976h2.136v-3.63a28.715,28.715,0,0,0-3.13-.16c-3.1,0-5.218,1.89-5.218,5.363v2.995H207v4.069h3.492v10.4Zm0,0" transform="translate(-196.131 -73.264)" fill="#fff"/>
</svg>
