<svg xmlns="http://www.w3.org/2000/svg" width="27.29" height="22.179" viewBox="0 0 27.29 22.179">
  <path id="_005-twitter" data-name="005-twitter" d="M8.583,22.678a15.822,15.822,0,0,0,15.93-15.93q0-.364-.016-.724a11.392,11.392,0,0,0,2.793-2.9,11.169,11.169,0,0,1-3.215.882,5.619,5.619,0,0,0,2.462-3.1,11.233,11.233,0,0,1-3.555,1.359A5.6,5.6,0,0,0,13.44,7.374,15.9,15.9,0,0,1,1.9,1.524,5.6,5.6,0,0,0,3.633,9,5.556,5.556,0,0,1,1.1,8.3c0,.024,0,.046,0,.071a5.6,5.6,0,0,0,4.492,5.489,5.591,5.591,0,0,1-2.529.1A5.605,5.605,0,0,0,8.29,17.844a11.233,11.233,0,0,1-6.954,2.4A11.416,11.416,0,0,1,0,20.163a15.85,15.85,0,0,0,8.583,2.515" transform="translate(0 -0.5)" fill="#1da1f2"/>
</svg>
