<svg xmlns="http://www.w3.org/2000/svg" width="209.5" height="103.843" viewBox="0 0 209.5 103.843">
  <g id="Group_118" data-name="Group 118" transform="translate(-687.553 1067.591)">
    <path id="Path_35" data-name="Path 35" d="M756.312-1033.212v25.784a8.6,8.6,0,0,1-8.595,8.595,8.588,8.588,0,0,1-7.831-5.052,8.607,8.607,0,0,1-.764-3.543v-25.784a17.191,17.191,0,0,0-17.19-17.19,17.191,17.191,0,0,0-17.19,17.19v25.784a8.607,8.607,0,0,1-.764,3.543,8.587,8.587,0,0,1-7.831,5.052,8.6,8.6,0,0,1-8.595-8.595V-1059a8.6,8.6,0,0,1,8.595-8.595,8.587,8.587,0,0,1,7.831,5.052c.248-.153.506-.306.764-.449a33.93,33.93,0,0,1,4.269-2.091c.134-.057.267-.105.4-.153a34.058,34.058,0,0,1,12.52-2.359,34.16,34.16,0,0,1,17.19,4.6A34.36,34.36,0,0,1,756.312-1033.212Z" fill="#ed1c24"/>
    <path id="Path_36" data-name="Path 36" d="M704.744-1059v51.569a8.605,8.605,0,0,1-.764,3.543,8.587,8.587,0,0,1-7.831,5.052,8.6,8.6,0,0,1-8.595-8.595V-1059a8.6,8.6,0,0,1,8.595-8.595,8.587,8.587,0,0,1,7.831,5.052,8.607,8.607,0,0,1,.583,1.776A9.009,9.009,0,0,1,704.744-1059Z" transform="translate(-0.001)" fill="#ed1c24"/>
    <path id="Path_37" data-name="Path 37" d="M1186.747-1033.212v25.784a8.6,8.6,0,0,1-8.595,8.595,8.587,8.587,0,0,1-7.831-5.052,8.607,8.607,0,0,1-.764-3.543v-25.784a17.191,17.191,0,0,0-17.19-17.19,17.191,17.191,0,0,0-17.19,17.19v25.784a8.607,8.607,0,0,1-.764,3.543,8.587,8.587,0,0,1-7.831,5.052,8.6,8.6,0,0,1-8.595-8.595V-1059a8.6,8.6,0,0,1,8.595-8.595,8.587,8.587,0,0,1,7.831,5.052c.248-.153.506-.306.764-.449a33.937,33.937,0,0,1,4.269-2.091c.134-.057.267-.105.4-.153a34.059,34.059,0,0,1,12.52-2.359,34.161,34.161,0,0,1,17.19,4.6A34.361,34.361,0,0,1,1186.747-1033.212Z" transform="translate(-356.332)" fill="#ed1c24"/>
    <path id="Path_38" data-name="Path 38" d="M1135.18-1059v51.569a8.607,8.607,0,0,1-.764,3.543,8.587,8.587,0,0,1-7.831,5.052,8.6,8.6,0,0,1-8.595-8.595V-1059a8.6,8.6,0,0,1,8.595-8.595,8.587,8.587,0,0,1,7.831,5.052,8.6,8.6,0,0,1,.583,1.776A9.023,9.023,0,0,1,1135.18-1059Z" transform="translate(-356.333)" fill="#ed1c24"/>
    <path id="Path_39" data-name="Path 39" d="M1607.117-1021.055a8.6,8.6,0,0,1,.306,11.832c-.1.114-.2.219-.306.325s-.21.21-.325.306a34.238,34.238,0,0,1-23.989,9.76,34.307,34.307,0,0,1-24.314-10.066,34.307,34.307,0,0,1-10.066-24.314,34.307,34.307,0,0,1,10.066-24.314,34.307,34.307,0,0,1,24.314-10.065,34.238,34.238,0,0,1,23.989,9.76c.115.1.22.2.325.306s.21.21.306.325a8.6,8.6,0,0,1-.306,11.832,8.588,8.588,0,0,1-12.157,0,17.174,17.174,0,0,0-12.157-5.033,17.174,17.174,0,0,0-12.157,5.033,17.174,17.174,0,0,0-5.033,12.157,17.174,17.174,0,0,0,5.033,12.157,17.173,17.173,0,0,0,12.157,5.033,17.173,17.173,0,0,0,12.157-5.033A8.588,8.588,0,0,1,1607.117-1021.055Z" transform="translate(-712.664)" fill="#ed1c24"/>
    <g id="Group_116" data-name="Group 116" transform="translate(688.774 -992.899)">
      <path id="Path_40" data-name="Path 40" d="M703.165-605.459c0-2.2-1.2-3.334-3.007-3.334-1.831,0-3.029,1.133-3.029,3.334v6.712h-2.484v-12.008h2.484v1.373a4.62,4.62,0,0,1,3.574-1.569c2.811,0,4.925,1.765,4.925,5.121v7.083h-2.463Z" transform="translate(-694.644 614.874)" fill="#fff"/>
      <path id="Path_41" data-name="Path 41" d="M794.059-598.551a5.826,5.826,0,0,1-5.993-6.211c0-3.77,2.441-6.189,5.993-6.189a5.6,5.6,0,0,1,5.841,5.906,7.659,7.659,0,0,1-.087,1.22h-9.175a3.3,3.3,0,0,0,3.422,3.182,2.907,2.907,0,0,0,2.833-1.678h2.681A5.487,5.487,0,0,1,794.059-598.551Zm-3.4-7.279h6.647a3.118,3.118,0,0,0-3.356-3.029A3.27,3.27,0,0,0,790.659-605.83Z" transform="translate(-771.982 614.874)" fill="#fff"/>
      <path id="Path_42" data-name="Path 42" d="M882.524-622.142h-1.417v-2.027h1.417v-2.986h2.506v2.986h2.92v2.027h-2.92v6.647c0,.893.349,1.264,1.395,1.264h1.526v2.07h-1.962c-2.136,0-3.465-.893-3.465-3.334Z" transform="translate(-849.006 628.287)" fill="#fff"/>
      <path id="Path_43" data-name="Path 43" d="M952.709-598.747h-2.484v-12.008h2.484v1.743a3.912,3.912,0,0,1,3.6-1.94v2.572h-.632c-1.831,0-2.964.763-2.964,3.313Z" transform="translate(-906.224 614.874)" fill="#fff"/>
      <path id="Path_44" data-name="Path 44" d="M1015.766-610.951a5.111,5.111,0,0,1,4.162,1.94v-1.743h2.506v12.008h-2.506v-1.787a5.169,5.169,0,0,1-4.206,1.983c-3.116,0-5.623-2.55-5.623-6.255S1012.606-610.951,1015.766-610.951Zm.523,2.158a3.684,3.684,0,0,0-3.64,3.988,3.783,3.783,0,0,0,3.64,4.1,3.731,3.731,0,0,0,3.639-4.053A3.724,3.724,0,0,0,1016.289-608.793Z" transform="translate(-955.791 614.874)" fill="#fff"/>
      <path id="Path_45" data-name="Path 45" d="M1116.815-633.736h2.484v16.127h-2.484Z" transform="translate(-1044.134 633.736)" fill="#fff"/>
      <path id="Path_46" data-name="Path 46" d="M1175.3-605.293c0-2.441-1.329-3.683-3.334-3.683-2.027,0-3.422,1.264-3.422,3.836v6.6h-1.983V-610.48h1.983v1.7a4.412,4.412,0,0,1,3.835-1.918c2.768,0,4.882,1.7,4.882,5.121v7.039H1175.3Z" transform="translate(-1085.318 614.664)" fill="#fff"/>
      <path id="Path_47" data-name="Path 47" d="M1265.26-598.236c-3.4,0-5.906-2.4-5.906-6.189,0-3.77,2.419-6.146,5.906-6.146a5.474,5.474,0,0,1,5.732,5.71,10.751,10.751,0,0,1-.065,1.2h-9.545a3.754,3.754,0,0,0,3.879,3.748,3.283,3.283,0,0,0,3.356-2.2h2.136A5.37,5.37,0,0,1,1265.26-598.236Zm-3.857-7.039h7.54a3.5,3.5,0,0,0-3.77-3.618A3.7,3.7,0,0,0,1261.4-605.275Z" transform="translate(-1162.134 614.559)" fill="#fff"/>
      <path id="Path_48" data-name="Path 48" d="M1349.991-609.432h2.027l2.746,10.025,2.964-10.025h2.027l2.9,10.047,2.7-10.047h1.961l-3.726,11.943h-2.049l-2.877-9.48-2.877,9.48h-2.048Z" transform="translate(-1237.167 613.616)" fill="#fff"/>
      <path id="Path_49" data-name="Path 49" d="M1479.183-598.236c-2.79,0-4.751-1.526-4.882-3.7h2.049c.109,1.155,1.133,2.027,2.811,2.027,1.569,0,2.441-.785,2.441-1.765,0-2.659-7.061-1.112-7.061-5.557,0-1.831,1.722-3.334,4.381-3.334,2.637,0,4.38,1.417,4.511,3.748h-1.983a2.3,2.3,0,0,0-2.593-2.07c-1.46,0-2.332.7-2.332,1.656,0,2.833,6.93,1.286,7.017,5.557C1483.541-599.718,1481.82-598.236,1479.183-598.236Z" transform="translate(-1340.076 614.559)" fill="#fff"/>
      <path id="Path_50" data-name="Path 50" d="M1557.428-552.3a1.33,1.33,0,0,1-1.351-1.351,1.33,1.33,0,0,1,1.351-1.351,1.322,1.322,0,0,1,1.308,1.351A1.322,1.322,0,0,1,1557.428-552.3Z" transform="translate(-1407.773 568.555)" fill="#fff"/>
      <path id="Path_51" data-name="Path 51" d="M1604.429-610.571c2.964,0,4.9,1.526,5.514,4.032h-2.136a3.254,3.254,0,0,0-3.378-2.354c-2.179,0-3.792,1.547-3.792,4.468,0,2.964,1.613,4.511,3.792,4.511a3.2,3.2,0,0,0,3.378-2.354h2.136a5.312,5.312,0,0,1-5.514,4.032c-3.4,0-5.819-2.4-5.819-6.189C1598.61-608.174,1601.029-610.571,1604.429-610.571Z" transform="translate(-1442.984 614.559)" fill="#fff"/>
      <path id="Path_52" data-name="Path 52" d="M1697.476-598.236a5.8,5.8,0,0,1-5.95-6.189,5.841,5.841,0,0,1,6.037-6.146,5.829,5.829,0,0,1,6.037,6.146A5.921,5.921,0,0,1,1697.476-598.236Zm0-1.743c2.07,0,4.1-1.417,4.1-4.446,0-3.007-1.983-4.424-4.032-4.424-2.092,0-3.988,1.417-3.988,4.424C1693.553-601.4,1695.405-599.98,1697.476-599.98Z" transform="translate(-1519.903 614.559)" fill="#fff"/>
      <path id="Path_53" data-name="Path 53" d="M1810.162-605.293c0-2.441-1.308-3.683-3.269-3.683-2,0-3.378,1.286-3.378,3.857v6.582h-1.961v-6.756c0-2.441-1.308-3.683-3.269-3.683-2.005,0-3.378,1.286-3.378,3.857v6.582h-1.983V-610.48h1.983v1.722a4.318,4.318,0,0,1,3.77-1.94,4.494,4.494,0,0,1,4.38,2.659,4.421,4.421,0,0,1,4.228-2.659c2.724,0,4.838,1.7,4.838,5.121v7.039h-1.961Z" transform="translate(-1603.844 614.664)" fill="#fff"/>
    </g>
    <g id="Group_117" data-name="Group 117" transform="translate(689.344 -971.758)">
      <path id="Path_54" data-name="Path 54" d="M701.867-510.94a3.686,3.686,0,0,1,3.629,2.371h-1.225a2.464,2.464,0,0,0-2.4-1.472A2.844,2.844,0,0,0,699-506.929a2.84,2.84,0,0,0,2.865,3.1,2.471,2.471,0,0,0,2.4-1.461H705.5a3.682,3.682,0,0,1-3.629,2.348,3.842,3.842,0,0,1-3.91-3.989A3.861,3.861,0,0,1,701.867-510.94Z" transform="translate(-697.957 510.94)" fill="#fff"/>
      <path id="Path_55" data-name="Path 55" d="M812.2-509.575h-3.191v2.618h2.854v.843h-2.854v2.7H812.2v.843h-4.213v-7.842H812.2Z" transform="translate(-789.043 510.508)" fill="#fff"/>
      <path id="Path_56" data-name="Path 56" d="M901.423-510.353c1.843,0,2.719,1.022,2.719,2.3a2.208,2.208,0,0,1-1.865,2.247l1.966,3.281h-1.225l-1.865-3.2h-1.236v3.2H898.9v-7.831Zm0,.843h-1.506v2.966h1.506c1.157,0,1.663-.629,1.663-1.506S902.591-509.51,901.423-509.51Z" transform="translate(-864.302 510.454)" fill="#fff"/>
      <path id="Path_57" data-name="Path 57" d="M996-510.027h1.1l2.876,6.427,2.876-6.427h1.09v7.775h-1.022v-5.8l-2.584,5.8h-.719l-2.6-5.809v5.809H996Z" transform="translate(-944.691 510.184)" fill="#fff"/>
      <path id="Path_58" data-name="Path 58" d="M1109.622-510.353h1.022v7.831h-1.022Z" transform="translate(-1038.75 510.454)" fill="#fff"/>
      <path id="Path_59" data-name="Path 59" d="M1189.262-510.418v7.842h-1.022l-4.112-6.236v6.236H1183.1v-7.842h1.022l4.112,6.224v-6.224Z" transform="translate(-1099.582 510.508)" fill="#fff"/>
      <path id="Path_60" data-name="Path 60" d="M1364.188-502.522h-2.921v-7.831h2.809c1.652,0,2.483.9,2.483,1.989a1.833,1.833,0,0,1-1.371,1.809,1.955,1.955,0,0,1,1.551,1.932C1366.739-503.443,1365.806-502.522,1364.188-502.522Zm-.2-6.988h-1.7v2.539h1.719c.955,0,1.505-.472,1.505-1.27C1365.514-509.016,1364.986-509.51,1363.986-509.51Zm.079,3.382h-1.775v2.764h1.809c1.011,0,1.618-.506,1.618-1.36S1365.064-506.129,1364.065-506.129Z" transform="translate(-1247.072 510.454)" fill="#fff"/>
      <path id="Path_61" data-name="Path 61" d="M1460.953-504.047h-3.416l-.629,1.741h-1.079l2.831-7.786h1.18l2.82,7.786h-1.079Zm-1.708-4.786-1.416,3.955h2.831Z" transform="translate(-1325.354 510.238)" fill="#fff"/>
      <path id="Path_62" data-name="Path 62" d="M1566.274-510.418v7.842h-1.023l-4.112-6.236v6.236h-1.022v-7.842h1.022l4.112,6.224v-6.224Z" transform="translate(-1411.688 510.508)" fill="#fff"/>
      <path id="Path_63" data-name="Path 63" d="M1668.745-508.516h-1.224a2.5,2.5,0,0,0-2.382-1.438,2.844,2.844,0,0,0-2.887,3.079,2.841,2.841,0,0,0,2.887,3.067,2.64,2.64,0,0,0,2.753-2.539h-3.123v-.831h4.213v.786a3.8,3.8,0,0,1-3.843,3.506,3.853,3.853,0,0,1-3.932-3.989,3.863,3.863,0,0,1,3.932-4A3.7,3.7,0,0,1,1668.745-508.516Z" transform="translate(-1495.373 510.887)" fill="#fff"/>
      <path id="Path_64" data-name="Path 64" d="M1773.03-502.929c-1.573,0-2.685-.876-2.708-2.168h1.09a1.45,1.45,0,0,0,1.618,1.3c.989,0,1.573-.562,1.573-1.3,0-2.112-4.236-.764-4.236-3.674,0-1.292,1.045-2.168,2.6-2.168a2.342,2.342,0,0,1,2.6,2.011h-1.124a1.418,1.418,0,0,0-1.517-1.135c-.843-.022-1.505.416-1.505,1.258,0,2.023,4.224.764,4.224,3.663A2.346,2.346,0,0,1,1773.03-502.929Z" transform="translate(-1585.704 510.94)" fill="#fff"/>
      <path id="Path_65" data-name="Path 65" d="M1869.617-504.047H1866.2l-.629,1.741h-1.079l2.832-7.786h1.18l2.82,7.786h-1.079Zm-1.708-4.786-1.416,3.955h2.831Z" transform="translate(-1663.663 510.238)" fill="#fff"/>
    </g>
  </g>
</svg>
